<?xml version="1.0" encoding="UTF-8" standalone="no"?>
<!DOCTYPE svg PUBLIC "-//W3C//DTD SVG 1.1//EN"
 "http://www.w3.org/Graphics/SVG/1.1/DTD/svg11.dtd">
<!-- Generated by graphviz version 2.26.3 (20100126.1600)
 -->
<!-- Title: files Pages: 1 -->
<svg width="1112pt" height="528pt"
 viewBox="0.00 0.00 1112.00 528.00" xmlns="http://www.w3.org/2000/svg" xmlns:xlink="http://www.w3.org/1999/xlink">
<g id="graph1" class="graph" transform="scale(1 1) rotate(0) translate(4 524)">
<title>files</title>
<polygon fill="white" stroke="white" points="-4,5 -4,-524 1109,-524 1109,5 -4,5"/>
<g id="graph3" class="cluster"><title>cluster_0</title>
<polygon fill="none" stroke="black" points="121,-382 121,-512 546,-512 546,-382 121,-382"/>
<text text-anchor="middle" x="223" y="-495.4" font-family="Times Roman,serif" font-size="14.00">read PDP&#45;11 assembly code</text>
</g>
<g id="graph4" class="cluster"><title>cluster_1</title>
<polygon fill="none" stroke="black" points="114,-8 114,-374 1096,-374 1096,-8 114,-8"/>
<text text-anchor="middle" x="247" y="-357.4" font-family="Times Roman,serif" font-size="14.00">translate to 8086 ACK assembly code</text>
</g>
<g id="graph5" class="cluster"><title>cluster_2</title>
<polygon fill="none" stroke="black" points="346,-60 346,-244 1088,-244 1088,-60 346,-60"/>
<text text-anchor="middle" x="406" y="-227.4" font-family="Times Roman,serif" font-size="14.00">ACK Instruction</text>
</g>
<!-- main -->
<g id="node2" class="node"><title>main</title>
<ellipse fill="none" stroke="black" cx="43" cy="-339" rx="42.9325" ry="18"/>
<text text-anchor="middle" x="43" y="-334.4" font-family="Times Roman,serif" font-size="14.00">main.fs</text>
</g>
<!-- readPdp11as -->
<g id="node3" class="node"><title>readPdp11as</title>
<ellipse fill="none" stroke="black" cx="210" cy="-408" rx="81.1693" ry="18"/>
<text text-anchor="middle" x="210" y="-403.4" font-family="Times Roman,serif" font-size="14.00">readPdp11as.fs</text>
</g>
<!-- main&#45;&gt;readPdp11as -->
<g id="edge3" class="edge"><title>main&#45;&gt;readPdp11as</title>
<path fill="none" stroke="black" d="M67.3663,-353.964C80.7961,-361.804 97.9554,-371.167 114,-378 125.045,-382.704 137.081,-387.044 148.78,-390.878"/>
<polygon fill="black" stroke="black" points="147.907,-394.274 158.498,-393.976 150.033,-387.604 147.907,-394.274"/>
</g>
<!-- transTo8086as -->
<g id="node6" class="node"><title>transTo8086as</title>
<ellipse fill="none" stroke="black" cx="210" cy="-270" rx="87.8775" ry="18"/>
<text text-anchor="middle" x="210" y="-265.4" font-family="Times Roman,serif" font-size="14.00">transTo8086as.fs</text>
</g>
<!-- main&#45;&gt;transTo8086as -->
<g id="edge10" class="edge"><title>main&#45;&gt;transTo8086as</title>
<path fill="none" stroke="black" d="M73.6304,-326.344C98.1643,-316.208 133.043,-301.797 161.384,-290.087"/>
<polygon fill="black" stroke="black" points="162.815,-293.283 170.721,-286.229 160.142,-286.813 162.815,-293.283"/>
</g>
<!-- pdp11Instruction -->
<g id="node4" class="node"><title>pdp11Instruction</title>
<ellipse fill="none" stroke="black" cx="438" cy="-408" rx="98.7825" ry="18"/>
<text text-anchor="middle" x="438" y="-403.4" font-family="Times Roman,serif" font-size="14.00">pdp11Instruction.fs</text>
</g>
<!-- readPdp11as&#45;&gt;pdp11Instruction -->
<g id="edge6" class="edge"><title>readPdp11as&#45;&gt;pdp11Instruction</title>
<path fill="none" stroke="black" d="M291.026,-408C303.146,-408 315.809,-408 328.401,-408"/>
<polygon fill="black" stroke="black" points="328.473,-411.5 338.473,-408 328.473,-404.5 328.473,-411.5"/>
</g>
<!-- pdp11Pseudo -->
<g id="node5" class="node"><title>pdp11Pseudo</title>
<ellipse fill="none" stroke="black" cx="438" cy="-462" rx="84.0232" ry="18"/>
<text text-anchor="middle" x="438" y="-457.4" font-family="Times Roman,serif" font-size="14.00">pdp11Pseudo.fs</text>
</g>
<!-- readPdp11as&#45;&gt;pdp11Pseudo -->
<g id="edge8" class="edge"><title>readPdp11as&#45;&gt;pdp11Pseudo</title>
<path fill="none" stroke="black" d="M265.484,-421.141C297.516,-428.727 338.005,-438.317 371.707,-446.299"/>
<polygon fill="black" stroke="black" points="370.937,-449.713 381.474,-448.612 372.55,-442.902 370.937,-449.713"/>
</g>
<!-- intermediate -->
<g id="node15" class="node"><title>intermediate</title>
<ellipse fill="none" stroke="black" cx="965" cy="-402" rx="77.9861" ry="18"/>
<text text-anchor="middle" x="965" y="-397.4" font-family="Times Roman,serif" font-size="14.00">intermediate.fs</text>
</g>
<!-- pdp11Instruction&#45;&gt;intermediate -->
<g id="edge33" class="edge"><title>pdp11Instruction&#45;&gt;intermediate</title>
<path fill="none" stroke="black" d="M545.559,-406.775C643.178,-405.664 785.398,-404.045 876.562,-403.007"/>
<polygon fill="black" stroke="black" points="876.628,-406.506 886.588,-402.893 876.549,-399.507 876.628,-406.506"/>
</g>
<!-- ackPseudo -->
<g id="node7" class="node"><title>ackPseudo</title>
<ellipse fill="none" stroke="black" cx="438" cy="-34" rx="69.7653" ry="18"/>
<text text-anchor="middle" x="438" y="-29.4" font-family="Times Roman,serif" font-size="14.00">ackPseudo.fs</text>
</g>
<!-- transTo8086as&#45;&gt;ackPseudo -->
<g id="edge15" class="edge"><title>transTo8086as&#45;&gt;ackPseudo</title>
<path fill="none" stroke="black" d="M214.941,-251.935C227.346,-210.198 263.937,-106.768 334,-56 342.182,-50.0713 351.621,-45.6722 361.405,-42.4197"/>
<polygon fill="black" stroke="black" points="362.655,-45.701 371.271,-39.5352 360.691,-38.9822 362.655,-45.701"/>
</g>
<!-- ackInstruction -->
<g id="node8" class="node"><title>ackInstruction</title>
<ellipse fill="none" stroke="black" cx="438" cy="-167" rx="83.8525" ry="18"/>
<text text-anchor="middle" x="438" y="-162.4" font-family="Times Roman,serif" font-size="14.00">ackInstruction.fs</text>
</g>
<!-- transTo8086as&#45;&gt;ackInstruction -->
<g id="edge13" class="edge"><title>transTo8086as&#45;&gt;ackInstruction</title>
<path fill="none" stroke="black" d="M231.443,-252.401C255.117,-233.866 295.053,-205.171 334,-189 342.324,-185.544 351.256,-182.606 360.263,-180.114"/>
<polygon fill="black" stroke="black" points="361.236,-183.477 370.039,-177.581 359.481,-176.701 361.236,-183.477"/>
</g>
<!-- ackExpression -->
<g id="node13" class="node"><title>ackExpression</title>
<ellipse fill="none" stroke="black" cx="438" cy="-270" rx="83.8525" ry="18"/>
<text text-anchor="middle" x="438" y="-265.4" font-family="Times Roman,serif" font-size="14.00">ackExpression.fs</text>
</g>
<!-- transTo8086as&#45;&gt;ackExpression -->
<g id="edge17" class="edge"><title>transTo8086as&#45;&gt;ackExpression</title>
<path fill="none" stroke="black" d="M298.151,-270C313.016,-270 328.5,-270 343.518,-270"/>
<polygon fill="black" stroke="black" points="343.827,-273.5 353.827,-270 343.827,-266.5 343.827,-273.5"/>
</g>
<!-- ackTempMemText -->
<g id="node14" class="node"><title>ackTempMemText</title>
<ellipse fill="none" stroke="black" cx="438" cy="-324" rx="103.977" ry="18"/>
<text text-anchor="middle" x="438" y="-319.4" font-family="Times Roman,serif" font-size="14.00">ackTempMemText.fs</text>
</g>
<!-- transTo8086as&#45;&gt;ackTempMemText -->
<g id="edge19" class="edge"><title>transTo8086as&#45;&gt;ackTempMemText</title>
<path fill="none" stroke="black" d="M267.534,-283.626C297.531,-290.731 334.507,-299.489 366.346,-307.029"/>
<polygon fill="black" stroke="black" points="365.95,-310.532 376.488,-309.431 367.564,-303.721 365.95,-310.532"/>
</g>
<!-- i8086AddressResolve -->
<g id="node9" class="node"><title>i8086AddressResolve</title>
<ellipse fill="none" stroke="black" cx="696" cy="-140" rx="118.064" ry="18"/>
<text text-anchor="middle" x="696" y="-135.4" font-family="Times Roman,serif" font-size="14.00">i8086AddressResolve.fs</text>
</g>
<!-- ackInstruction&#45;&gt;i8086AddressResolve -->
<g id="edge22" class="edge"><title>ackInstruction&#45;&gt;i8086AddressResolve</title>
<path fill="none" stroke="black" d="M513.665,-159.082C536.927,-156.647 562.997,-153.919 587.987,-151.304"/>
<polygon fill="black" stroke="black" points="588.663,-154.752 598.244,-150.23 587.934,-147.79 588.663,-154.752"/>
</g>
<!-- ackInstructionText -->
<g id="node10" class="node"><title>ackInstructionText</title>
<ellipse fill="none" stroke="black" cx="696" cy="-86" rx="102.807" ry="18"/>
<text text-anchor="middle" x="696" y="-81.4" font-family="Times Roman,serif" font-size="14.00">ackInstructionText.fs</text>
</g>
<!-- ackInstruction&#45;&gt;ackInstructionText -->
<g id="edge24" class="edge"><title>ackInstruction&#45;&gt;ackInstructionText</title>
<path fill="none" stroke="black" d="M511.207,-158.147C523.259,-155.005 535.297,-150.752 546,-145 563.716,-135.478 560.399,-122.734 578,-113 587.059,-107.99 597,-103.909 607.149,-100.584"/>
<polygon fill="black" stroke="black" points="608.366,-103.872 616.921,-97.622 606.336,-97.173 608.366,-103.872"/>
</g>
<!-- sysent -->
<g id="node12" class="node"><title>sysent</title>
<ellipse fill="none" stroke="black" cx="696" cy="-194" rx="49.1393" ry="18"/>
<text text-anchor="middle" x="696" y="-189.4" font-family="Times Roman,serif" font-size="14.00">sysent.fs</text>
</g>
<!-- ackInstruction&#45;&gt;sysent -->
<g id="edge26" class="edge"><title>ackInstruction&#45;&gt;sysent</title>
<path fill="none" stroke="black" d="M513.665,-174.918C553.487,-179.086 601.539,-184.115 638.314,-187.963"/>
<polygon fill="black" stroke="black" points="638.062,-191.456 648.372,-189.016 638.79,-184.494 638.062,-191.456"/>
</g>
<!-- i8086ProcedureStep -->
<g id="node11" class="node"><title>i8086ProcedureStep</title>
<ellipse fill="none" stroke="black" cx="965" cy="-113" rx="114.209" ry="18"/>
<text text-anchor="middle" x="965" y="-108.4" font-family="Times Roman,serif" font-size="14.00">i8086ProcedureStep.fs</text>
</g>
<!-- i8086AddressResolve&#45;&gt;i8086ProcedureStep -->
<g id="edge28" class="edge"><title>i8086AddressResolve&#45;&gt;i8086ProcedureStep</title>
<path fill="none" stroke="black" d="M794.638,-130.1C815.256,-128.03 837.086,-125.839 857.991,-123.741"/>
<polygon fill="black" stroke="black" points="858.569,-127.2 868.17,-122.719 857.87,-120.235 858.569,-127.2"/>
</g>
<!-- i8086AddressResolve&#45;&gt;intermediate -->
<g id="edge35" class="edge"><title>i8086AddressResolve&#45;&gt;intermediate</title>
<path fill="none" stroke="black" d="M940.834,-373.72C941.532,-374.561 942.218,-375.387 942.893,-376.196"/>
<polygon fill="black" stroke="black" points="940.311,-378.564 949.422,-383.972 945.672,-374.063 940.311,-378.564"/>
</g>
<!-- ackInstructionText&#45;&gt;i8086ProcedureStep -->
<g id="edge30" class="edge"><title>ackInstructionText&#45;&gt;i8086ProcedureStep</title>
<path fill="none" stroke="black" d="M785.947,-95.0281C809.067,-97.3488 834.168,-99.8681 858.056,-102.266"/>
<polygon fill="black" stroke="black" points="857.911,-105.769 868.211,-103.285 858.61,-98.8038 857.911,-105.769"/>
</g>
</g>
</svg>
